Pirates Of The Caribbean On Stranger Tides (2011) 1080p BluRay x264-TWiZTED

info:

Source: Region A BluRay
Video: x264 AVC High@L4.1 9964 Kbps
Framerate: 23.976 fps
Resolution: 1920x800
Audio: DTS 1509 kbps 6chs
Language: English
Subtitle: English SDH
Runtime: 136 min

MediaInfo:

Format                           : Matroska
File size                        : 10.9 GiB
Duration                         : 2h 16mn
Overall bit rate                 : 11.5 Mbps
Writing application              : mkvmerge v4.1.1 ('Bouncin' Back') built on Jul  3 2010 22:54:08
Writing library                  : libebml v1.0.0 + libmatroska v1.0

Video
ID                               : 1
Format                           : AVC
Format/Info                      : Advanced Video Codec
Format profile                   : High@L4.1
Format settings, CABAC           : Yes
Format settings, ReFrames        : 5 frames
Format settings, GOP             : M=4, N=16
Muxing mode                      : Container profile=Unknown@4.1
Codec ID                         : V_MPEG4/ISO/AVC
Duration                         : 2h 16mn
Bit rate                         : 9 964 Kbps
Width                            : 1 920 pixels
Height                           : 800 pixels
Display aspect ratio             : 2.40:1
Frame rate                       : 23.976 fps
Color space                      : YUV
Chroma subsampling               : 4:2:0
Bit depth                        : 8 bits
Scan type                        : Progressive
Bits/(Pixel*Frame)               : 0.271
Stream size                      : 9.28 GiB (85%)
Writing library                  : x264 core 115 r2008 4c552d8




Audio
ID                               : 2
Format                           : DTS
Format/Info                      : Digital Theater Systems
Codec ID                         : A_DTS
Duration                         : 2h 16mn
Bit rate mode                    : Constant
Bit rate                         : 1 510 Kbps
Channel(s)                       : 6 channels
Channel positions                : Front: L C R, Side: L R, LFE
Sampling rate                    : 48.0 KHz
Bit depth                        : 24 bits
Stream size                      : 1.44 GiB (13%)
Title                            : English DTS 1509kbps
Language                         : English
